<svg xmlns="http://www.w3.org/2000/svg" viewBox="0 0 64 64">
  <rect width="64" height="64" rx="14" fill="#2563eb"/>
  <path d="M14 21.5c0-2.5 2-4.5 4.5-4.5H30c2.2 0 4.2.8 5.8 2.1 1.6-1.3 3.6-2.1 5.8-2.1h3.9c2.5 0 4.5 2 4.5 4.5v24c0 1.4-1.1 2.5-2.5 2.5h-6.3c-1.9 0-3.7.6-5.2 1.8-.1.1-.3.2-.5.2s-.4-.1-.5-.2c-1.5-1.2-3.3-1.8-5.2-1.8H17c-1.7 0-3-1.3-3-3V21.5z" fill="#fff"/>
  <path d="M20 24h9.5c1.7 0 3.2.6 4.5 1.6v17.8c-1.3-.6-2.8-.9-4.3-.9H20V24zm18 1.6c1.3-1 2.8-1.6 4.5-1.6H44v18.5h-1.7c-1.5 0-3 .3-4.3.9V25.6z" fill="#dbeafe"/>
</svg>
